<?xml version="1.0" encoding="UTF-8"?>
<svg id="Lager_1" data-name="Lager 1" xmlns="http://www.w3.org/2000/svg" viewBox="0 0 841.89 595.28">
  <defs>
    <style>
      .cls-1 {
        fill: #060606;
      }

      .cls-2 {
        fill: #fff;
      }

      .cls-3 {
        fill: #030402;
      }

      .cls-4 {
        fill: #a01d34;
      }

      .cls-5 {
        fill: #222221;
      }
    </style>
  </defs>
  <path class="cls-3" d="M528.32,48.87c-13.15,9.18-21.54,30.76-31.22,42.05l-19.51-.37c-9.25-11.56-14.88-26.59-25.87-37.13-12.63-12.11-15.9-8-22.19,4.46-6.47,12.82-13.5,38.62-11.2,52.05.8,4.66,5.79,10.68,6.03,14.83.34,5.97-5.94,16.08-5.73,23.96.29,10.82,8.44,20.86,10.51,31.44l-18.12-21.84c-21.85-16.73-19.93-38.38-35.99-59.77-3.63-4.83-22.45-29.11-30.49-21.18-6.33,6.25-9.67,25.06-10.89,33.28-6.57-4.65-27.71-29.65-36.46-27.9-1.62.32-3.21,1.92-4.03,3.05-3.18,4.4-2.02,27.36-1.82,34.05.13,4.39,2.8,8.55,1.59,13.34-.71,2.81-7.57,7.99-9.65,12-1.91,3.67-2.43,10.29-3.6,11.83-2.55,3.32-33.7,13.29-39.86,17.73-6.47,4.67-1.85,12.05,1.21,17.23,3.22,5.45,21.72,24.57,28.02,26.95,14.4,5.43,36.61-3.6,51.35-3.4,10.08.13,20.52,18.56,23.82,25.34,1.77,3.62,9.22,19.47,5.15,21.7-33.14,7.23-73.58,7.07-103.85,20.31-14.49,6.34-23.25,16.3-41.18,17.93-51.42,4.67-51.01-30.57-27.87-55.87,3.7-4.04,18.72-14.36,14.54-19.46-16.44-2.68-36.6,4.84-49.15,13.23-57.09,38.15-16.06,106.56,58.73,90.29-11.2,29.75-1.43,71.35-29.78,95.71-5.77,4.96-17.37,9.66-19.92,16.19-3.66,9.37-6.01,36.51-6.63,47.28-.5,8.69-3.15,33.52,7.89,37.74,6.79,2.6,36.05,2.56,44.61,1.95,24.46-1.75,7.41-31.17-11.91-31.29-1.82-5.09,4.71-21.52,7.64-26.92,12.93-23.85,53.08-33.07,74.64-51.61.38,3.52-2.76,9.02-4.73,12.17-3.67,5.86-13.51,14.12-13.35,20.08.21,7.62,11.35,34.52,14.94,43.36,2.84,7,7.58,24.43,17.29,25.51,7.65.85,31.53.97,39.13.17,15.34-1.62,5.79-22.62-6.43-25.6-9.89-2.41-12.41,1.34-17.1-7.42-4.29-8.02-5.4-21.04-3.57-29.57,2.86-13.35,24.91-23.73,36.45-32.58,18.81-14.41,29.92-29.23,37.7-48.91,36.93,7.7,69.35,25.54,108.33,28.36,13.16,35.1,8.34,81.15,30.22,113.67,2.75,4.09,5.29,8.43,11.64,9.22,8.01,1,40.3.99,48.33,0,13.9-1.71,6.98-18.07.9-23.72-10.07-9.36-20.46.21-26.16-16.21-2.34-6.74-5.08-14.71-4.6-42.4.13-7.71.26-14.6,1.14-24.03.8-8.64,1.91-16.09,2.96-22.03,6.27-1.49,12.55-2.99,18.82-4.48,1.63,26.72,5.09,54.43,11.46,80.72,1.93,7.97,3.9,16.12,6.92,23.88,3.03,7.8,7.15,19.98,17.65,22.84,8.82,2.4,38.16,2.92,47.63,1.77,17.06-2.06,8.55-24.06-2.71-28.24-8.93-3.32-14.21.7-19.7-7.83-14.18-22.06-2.03-100.96,6.5-126.35,3.07-9.15,8.56-18.58,11.31-27.78,9.41-31.47-1.16-64.77,7.49-96.62,1.47-5.41,5.73-19.61,12.43-22.03,14.55-5.24,38.98,6.09,55.19-3.35,6.94-4.04,22.27-22.79,25.02-29.3,3.56-8.44,4.56-12.34-5.89-17.3-8.4-3.99-30.63-7.79-36.44-11.85-1.63-1.14-5.46-12.47-8.76-16.35-3.78-4.44-9.19-5.02-9.29-11.16-.18-11.03,3.05-23.56,1.77-35.44-3.19-29.79-31.58,9.19-38.83,17.35-.95,1.07.27,2.26-3.48,1.6-.45-6.53-7.2-29.52-13.19-33.02-9.24-5.38-23.2,15.41-26.76,20.8-15.22,23.05-11.36,45.78-34.27,64.77l-18.12,25.51c-4.16-12.87,7.89-22.17,9.36-33.55,1.27-9.87-3.26-17.09-3.25-25.6,0-6.71,4.29-14.76,4.51-21.96.4-13.22-5.21-38.97-12.43-51.05-3.68-6.15-6.15-11.32-14.87-5.23Z"/>
  <g>
    <path class="cls-1" d="M654.99,246.29l-513.02,68.17h0c-9.33,1.24-15.91,9.6-14.7,18.68v.08s10.06,75.64,10.06,75.64q-.01-.08,0,0c1.21,9.08,9.75,15.43,19.07,14.19h0l513.02-68.17c4.45-.59,8.76-2.25,12.36-4.8l78.35-55.1c2.58-1.84,3.89-4.84,3.49-7.87s-2.45-5.58-5.42-6.69l-90.02-32.72c-4.14-1.53-8.73-2-13.18-1.41Z"/>
    <path class="cls-2" d="M658.11,256.08l-513.02,68.17h0c-4.71.63-8.01,4.73-7.42,9.13v.08s9.84,74,9.84,74c-.01-.08,0,0,0,0,.58,4.4,4.84,7.5,9.55,6.87h0l513.02-68.17c4.03-.54,7.74-2.25,10.63-4.91l45.07-41.73c1.9-1.8,2.92-4.38,2.58-6.94s-2-4.78-4.31-6.02l-54.41-28.51c-3.49-1.82-7.51-2.5-11.55-1.97Z"/>
    <g>
      <path class="cls-5" d="M161.38,362.71l11.17-18.43,10.03-1.33-11.37,18.64,17.58,24.11-8.95,1.19-13.1-18.03-3.72,6.24,1.83,13.79-7.82,1.04-5.69-42.82,7.82-1.04,2.21,16.65Z"/>
      <path class="cls-5" d="M203.59,375.79l13.6-1.81,1.04,7.82-21.41,2.85-5.69-42.82,7.82-1.04,4.65,35.01Z"/>
      <path class="cls-5" d="M248.53,362.27l-3.67-27.59,7.82-1.04,3.67,27.64c.57,4.31-.46,8.19-3.09,11.62-2.63,3.43-6.11,5.44-10.42,6.01-4.32.57-8.2-.45-11.63-3.07-3.44-2.62-5.44-6.08-6.01-10.38l-3.68-27.67,7.82-1.04,3.67,27.59c.28,2.13,1.29,3.87,3.02,5.19,1.73,1.33,3.67,1.85,5.8,1.56s3.85-1.29,5.16-3.02c1.31-1.73,1.82-3.66,1.54-5.8Z"/>
      <path class="cls-5" d="M261.94,332.41l16.86-2.24c3.43-.46,6.5.36,9.23,2.45,2.73,2.09,4.32,4.85,4.78,8.27.39,2.93-.2,5.64-1.75,8.13,3.16,2.23,5,5.26,5.51,9.07.48,3.6-.39,6.85-2.6,9.74s-5.12,4.58-8.73,5.05l-17.61,2.34-5.69-42.82ZM272,348.23l9.05-1.2c1.25-.17,2.26-.74,3.04-1.74.78-.99,1.08-2.11.92-3.36s-.76-2.3-1.77-3.06c-1.01-.76-2.14-1.05-3.39-.88l-9.05,1.2,1.2,9.05ZM284.21,365.08c1.46-.19,2.64-.87,3.52-2.02.88-1.15,1.23-2.46,1.03-3.92-.31-2.32-1.59-3.78-3.85-4.39-.74-.08-1.5-.07-2.28.03l-9.58,1.27,1.37,10.33,9.8-1.3Z"/>
      <path class="cls-5" d="M300.97,327.22l16.86-2.24c3.43-.46,6.5.36,9.23,2.45,2.73,2.09,4.32,4.85,4.78,8.27.39,2.93-.2,5.64-1.75,8.13,3.16,2.23,5,5.26,5.51,9.07.48,3.6-.39,6.85-2.6,9.74s-5.12,4.58-8.73,5.05l-17.61,2.34-5.69-42.82ZM311.02,343.04l9.05-1.2c1.25-.17,2.26-.74,3.04-1.74.78-.99,1.08-2.11.92-3.36s-.76-2.3-1.77-3.06c-1.01-.76-2.14-1.05-3.39-.88l-9.05,1.2,1.2,9.05ZM323.23,359.89c1.46-.19,2.64-.87,3.52-2.02.88-1.15,1.23-2.46,1.03-3.92-.31-2.32-1.59-3.78-3.85-4.39-.74-.08-1.5-.07-2.28.03l-9.58,1.27,1.37,10.33,9.8-1.3Z"/>
      <path class="cls-5" d="M369.66,335.03l11.17-18.43,10.03-1.33-11.37,18.64,17.58,24.11-8.95,1.19-13.1-18.03-3.72,6.24,1.83,13.79-7.82,1.04-5.69-42.82,7.82-1.04,2.21,16.65Z"/>
      <path class="cls-5" d="M400.05,314.06l23.39-3.11,1.04,7.82-15.58,2.07,1.14,8.57,13.06-1.74,1.04,7.82-13.06,1.74,1.44,10.81,15.58-2.07,1.04,7.82-23.39,3.11-5.69-42.82Z"/>
      <path class="cls-5" d="M468.05,348.6l-8.78,1.17-11.41-16.19-4.76.63,2.31,17.4-7.82,1.04-5.69-42.82,16.59-2.21c3.53-.47,6.7.37,9.51,2.52,2.81,2.15,4.45,4.99,4.92,8.53.35,2.64-.09,5.16-1.31,7.56-1.23,2.4-3.04,4.23-5.45,5.49l11.89,16.89ZM454.12,323.35c.84-1.07,1.17-2.29.99-3.65s-.82-2.45-1.91-3.29c-1.09-.84-2.32-1.16-3.67-.98l-8.78,1.17,1.3,9.8,8.78-1.17c1.36-.18,2.45-.81,3.29-1.88Z"/>
      <path class="cls-5" d="M470.44,304.7l16.86-2.24c3.43-.46,6.5.36,9.23,2.45s4.32,4.85,4.78,8.27c.39,2.93-.2,5.64-1.75,8.13,3.17,2.23,5,5.26,5.51,9.07.48,3.6-.39,6.85-2.6,9.74s-5.12,4.58-8.73,5.05l-17.61,2.34-5.69-42.82ZM480.49,320.53l9.05-1.2c1.25-.17,2.26-.74,3.04-1.74.78-.99,1.08-2.11.91-3.36s-.76-2.3-1.77-3.06c-1.01-.76-2.14-1.05-3.39-.88l-9.05,1.2,1.2,9.05ZM492.7,337.37c1.46-.19,2.64-.87,3.52-2.02.88-1.15,1.22-2.46,1.03-3.92-.31-2.32-1.59-3.78-3.85-4.39-.74-.08-1.5-.07-2.28.03l-9.58,1.27,1.37,10.33,9.8-1.3Z"/>
      <path class="cls-5" d="M509.83,299.47l23.39-3.11,1.04,7.82-15.58,2.07,1.14,8.57,13.06-1.74,1.04,7.82-13.06,1.74,1.44,10.81,15.58-2.07,1.04,7.82-23.39,3.11-5.69-42.82Z"/>
      <path class="cls-5" d="M577.83,334.01l-8.78,1.17-11.41-16.19-4.76.63,2.31,17.4-7.82,1.04-5.69-42.82,16.59-2.2c3.53-.47,6.7.37,9.51,2.52,2.81,2.15,4.45,4.99,4.92,8.53.35,2.64-.09,5.16-1.31,7.56-1.23,2.4-3.04,4.23-5.45,5.49l11.89,16.89ZM563.91,308.76c.84-1.07,1.17-2.29.99-3.65s-.82-2.45-1.91-3.29c-1.09-.84-2.32-1.16-3.67-.98l-8.78,1.17,1.3,9.8,8.78-1.17c1.36-.18,2.45-.81,3.29-1.88Z"/>
      <path class="cls-5" d="M619.56,306.57l.03.21c.83,6.28-.46,11.97-3.89,17.08-2.76,4.11-6.69,6.5-11.79,7.18h-.05s-.11.02-.11.02c-5.07.67-9.49-.61-13.26-3.85-4.64-4.03-7.38-9.19-8.21-15.47l-.03-.21c-.83-6.28.46-11.97,3.89-17.08,2.79-4.15,6.72-6.56,11.79-7.23h.11s.05-.02.05-.02c5.1-.68,9.53.62,13.27,3.9,4.64,4.03,7.38,9.19,8.21,15.47ZM611.75,307.61c-.57-4.32-2.42-7.83-5.54-10.54-1.97-1.73-4.34-2.42-7.08-2.05h-.05s-.11.02-.11.02c-2.71.36-4.79,1.64-6.25,3.83-2.34,3.43-3.22,7.31-2.65,11.63l.03.21c.57,4.28,2.43,7.79,5.59,10.53,1.93,1.7,4.27,2.37,7.02,2.01h.11s.05-.02.05-.02c2.75-.37,4.85-1.62,6.31-3.78,2.3-3.46,3.17-7.34,2.6-11.62l-.03-.21Z"/>
      <path class="cls-5" d="M635.91,297.59l11.89,1.74c3.71.56,6.68,2.31,8.92,5.24,1.32,1.71,2.12,3.62,2.4,5.73.28,2.14.01,4.19-.82,6.15-.77,2.1-2,3.88-3.68,5.34-1.68,1.46-3.61,2.4-5.81,2.84-1.11.37-2.26.63-3.44.78-6.42.85-12.13-.8-17.11-4.97l5.02-6.06c3.23,2.7,6.91,3.77,11.05,3.22.89-.12,1.75-.34,2.58-.67,2.07-.31,3.4-1.45,4.01-3.42.35-.66.47-1.39.36-2.17-.09-.71-.36-1.35-.8-1.91-.97-1.3-2.25-2.07-3.84-2.3v.03s-11.78-1.81-11.78-1.81c-2.41-.37-4.47-1.4-6.17-3.12-1.7-1.71-2.71-3.76-3.03-6.14s.14-4.71,1.38-6.86c1.96-3.27,4.77-5.48,8.44-6.62,1.25-.42,2.55-.72,3.91-.9,5.53-.73,10.64.44,15.34,3.52l-4.36,6.57c-3.03-1.99-6.34-2.75-9.94-2.27-.89.12-1.75.32-2.59.62-1.75.52-3.06,1.55-3.95,3.08-.36.59-.49,1.21-.41,1.85.19,1.43.99,2.27,2.4,2.51Z"/>
    </g>
  </g>
  <ellipse class="cls-4" cx="660.05" cy="149.54" rx="6.28" ry="17.25" transform="translate(260.1 695.5) rotate(-66.54)"/>
  <ellipse class="cls-4" cx="520.22" cy="137.51" rx="17.25" ry="6.28" transform="translate(-12.94 210.16) rotate(-22.57)"/>
  <ellipse class="cls-4" cx="456.16" cy="137.51" rx="6.28" ry="17.25" transform="translate(154.12 505.98) rotate(-67.43)"/>
  <ellipse class="cls-4" cx="313.72" cy="149.54" rx="17.25" ry="6.28" transform="translate(-33.6 137.25) rotate(-23.46)"/>
</svg>